<svg width="33" height="51" viewBox="0 0 33 51" fill="none" xmlns="http://www.w3.org/2000/svg">
<mask id="path-1-inside-1_202_44" fill="white">
<path fill-rule="evenodd" clip-rule="evenodd" d="M21 7H21.3713L33 18.6287V19V49C33 50.1046 32.1046 51 31 51H2C0.895431 51 0 50.1046 0 49V9C0 7.89543 0.895431 7 2 7H21ZM21 9V19H31V36H2V9H21ZM5.44441 48.73C6.05441 48.98 6.74441 49.105 7.51441 49.105C8.30441 49.105 8.98941 48.96 9.56941 48.67C10.1494 48.38 10.5894 47.99 10.8894 47.5C11.1994 47.01 11.3544 46.465 11.3544 45.865C11.3544 45.235 11.1994 44.72 10.8894 44.32C10.5794 43.92 10.2094 43.615 9.77941 43.405C9.35941 43.195 8.80941 42.975 8.12941 42.745C7.44941 42.525 6.94941 42.32 6.62941 42.13C6.30941 41.94 6.14941 41.675 6.14941 41.335C6.14941 41.025 6.24441 40.79 6.43441 40.63C6.62441 40.46 6.87441 40.375 7.18441 40.375C7.54441 40.375 7.83941 40.475 8.06941 40.675C8.29941 40.865 8.42441 41.13 8.44441 41.47H11.2194C11.1694 40.48 10.7894 39.71 10.0794 39.16C9.36941 38.6 8.43441 38.32 7.27441 38.32C6.13441 38.32 5.20941 38.6 4.49941 39.16C3.78941 39.71 3.43441 40.475 3.43441 41.455C3.43441 42.115 3.58941 42.65 3.89941 43.06C4.20941 43.47 4.57941 43.78 5.00941 43.99C5.43941 44.2 5.99441 44.41 6.67441 44.62C7.14441 44.76 7.50441 44.885 7.75441 44.995C8.01441 45.105 8.22941 45.245 8.39941 45.415C8.57941 45.585 8.66941 45.8 8.66941 46.06C8.66941 46.37 8.55941 46.615 8.33941 46.795C8.11941 46.965 7.81941 47.05 7.43941 47.05C7.06941 47.05 6.76941 46.95 6.53941 46.75C6.30941 46.54 6.17441 46.24 6.13441 45.85H3.40441C3.42441 46.54 3.61441 47.13 3.97441 47.62C4.34441 48.11 4.83441 48.48 5.44441 48.73ZM20.5079 40.525V38.47H12.3629V40.525H15.1529V49H17.7179V40.525H20.5079ZM29.4002 43.54C29.6802 43.03 29.8202 42.47 29.8202 41.86C29.8202 41.2 29.6752 40.615 29.3852 40.105C29.0952 39.595 28.6602 39.195 28.0802 38.905C27.5002 38.615 26.7902 38.47 25.9502 38.47H21.7952V49H24.3602V45.22H25.9502C26.8102 45.22 27.5302 45.065 28.1102 44.755C28.6902 44.445 29.1202 44.04 29.4002 43.54ZM26.8502 42.835C26.6102 43.065 26.2452 43.18 25.7552 43.18H24.3602V40.54H25.7552C26.2452 40.54 26.6102 40.655 26.8502 40.885C27.0902 41.115 27.2102 41.44 27.2102 41.86C27.2102 42.28 27.0902 42.605 26.8502 42.835Z"/>
</mask>
<path fill-rule="evenodd" clip-rule="evenodd" d="M21 7H21.3713L33 18.6287V19V49C33 50.1046 32.1046 51 31 51H2C0.895431 51 0 50.1046 0 49V9C0 7.89543 0.895431 7 2 7H21ZM21 9V19H31V36H2V9H21ZM5.44441 48.73C6.05441 48.98 6.74441 49.105 7.51441 49.105C8.30441 49.105 8.98941 48.96 9.56941 48.67C10.1494 48.38 10.5894 47.99 10.8894 47.5C11.1994 47.01 11.3544 46.465 11.3544 45.865C11.3544 45.235 11.1994 44.72 10.8894 44.32C10.5794 43.92 10.2094 43.615 9.77941 43.405C9.35941 43.195 8.80941 42.975 8.12941 42.745C7.44941 42.525 6.94941 42.32 6.62941 42.13C6.30941 41.94 6.14941 41.675 6.14941 41.335C6.14941 41.025 6.24441 40.79 6.43441 40.63C6.62441 40.46 6.87441 40.375 7.18441 40.375C7.54441 40.375 7.83941 40.475 8.06941 40.675C8.29941 40.865 8.42441 41.13 8.44441 41.47H11.2194C11.1694 40.48 10.7894 39.71 10.0794 39.16C9.36941 38.6 8.43441 38.32 7.27441 38.32C6.13441 38.32 5.20941 38.6 4.49941 39.16C3.78941 39.71 3.43441 40.475 3.43441 41.455C3.43441 42.115 3.58941 42.65 3.89941 43.06C4.20941 43.47 4.57941 43.78 5.00941 43.99C5.43941 44.2 5.99441 44.41 6.67441 44.62C7.14441 44.76 7.50441 44.885 7.75441 44.995C8.01441 45.105 8.22941 45.245 8.39941 45.415C8.57941 45.585 8.66941 45.8 8.66941 46.06C8.66941 46.37 8.55941 46.615 8.33941 46.795C8.11941 46.965 7.81941 47.05 7.43941 47.05C7.06941 47.05 6.76941 46.95 6.53941 46.75C6.30941 46.54 6.17441 46.24 6.13441 45.85H3.40441C3.42441 46.54 3.61441 47.13 3.97441 47.62C4.34441 48.11 4.83441 48.48 5.44441 48.73ZM20.5079 40.525V38.47H12.3629V40.525H15.1529V49H17.7179V40.525H20.5079ZM29.4002 43.54C29.6802 43.03 29.8202 42.47 29.8202 41.86C29.8202 41.2 29.6752 40.615 29.3852 40.105C29.0952 39.595 28.6602 39.195 28.0802 38.905C27.5002 38.615 26.7902 38.47 25.9502 38.47H21.7952V49H24.3602V45.22H25.9502C26.8102 45.22 27.5302 45.065 28.1102 44.755C28.6902 44.445 29.1202 44.04 29.4002 43.54ZM26.8502 42.835C26.6102 43.065 26.2452 43.18 25.7552 43.18H24.3602V40.54H25.7552C26.2452 40.54 26.6102 40.655 26.8502 40.885C27.0902 41.115 27.2102 41.44 27.2102 41.86C27.2102 42.28 27.0902 42.605 26.8502 42.835Z" fill="#50C0FF"/>
<path d="M21.3713 7L22.0784 6.29289L21.7856 6H21.3713V7ZM33 18.6287H34V18.2144L33.7071 17.9216L33 18.6287ZM21 19H20V20H21V19ZM21 9H22V8H21V9ZM31 19H32V18H31V19ZM31 36V37H32V36H31ZM2 36H1V37H2V36ZM2 9V8H1V9H2ZM9.56941 48.67L9.1222 47.7756L9.1222 47.7756L9.56941 48.67ZM10.8894 47.5L10.0443 46.9654L10.0404 46.9716L10.0366 46.9778L10.8894 47.5ZM10.8894 44.32L10.099 44.9326L10.099 44.9326L10.8894 44.32ZM9.77941 43.405L9.33218 44.2995L9.34058 44.3036L9.77941 43.405ZM8.12941 42.745L8.44985 41.7976L8.43723 41.7936L8.12941 42.745ZM6.62941 42.13L6.11887 42.9899L6.11888 42.9899L6.62941 42.13ZM6.43441 40.63L7.07855 41.3949L7.09003 41.3852L7.10121 41.3752L6.43441 40.63ZM8.06941 40.675L7.41323 41.4296L7.42278 41.4379L7.43253 41.446L8.06941 40.675ZM8.44441 41.47L7.44614 41.5287L7.50151 42.47H8.44441V41.47ZM11.2194 41.47V42.47H12.2712L12.2181 41.4196L11.2194 41.47ZM10.0794 39.16L9.46011 39.9452L9.46702 39.9506L10.0794 39.16ZM4.49941 39.16L5.11183 39.9506L5.1187 39.9452L4.49941 39.16ZM5.00941 43.99L5.44825 43.0914L5.44825 43.0914L5.00941 43.99ZM6.67441 44.62L6.37933 45.5755L6.38894 45.5784L6.67441 44.62ZM7.75441 44.995L7.35167 45.9103L7.3582 45.9132L7.36477 45.916L7.75441 44.995ZM8.39941 45.415L7.6923 46.1221L7.70241 46.1322L7.7128 46.142L8.39941 45.415ZM8.33941 46.795L8.95087 47.5863L8.96188 47.5778L8.97265 47.569L8.33941 46.795ZM6.53941 46.75L5.86515 47.4885L5.87409 47.4967L5.88323 47.5046L6.53941 46.75ZM6.13441 45.85L7.1292 45.748L7.0371 44.85H6.13441V45.85ZM3.40441 45.85V44.85H2.37501L2.40483 45.879L3.40441 45.85ZM3.97441 47.62L3.16846 48.2121L3.17637 48.2226L3.97441 47.62ZM20.5079 38.47H21.5079V37.47H20.5079V38.47ZM20.5079 40.525V41.525H21.5079V40.525H20.5079ZM12.3629 38.47V37.47H11.3629V38.47H12.3629ZM12.3629 40.525H11.3629V41.525H12.3629V40.525ZM15.1529 40.525H16.1529V39.525H15.1529V40.525ZM15.1529 49H14.1529V50H15.1529V49ZM17.7179 49V50H18.7179V49H17.7179ZM17.7179 40.525V39.525H16.7179V40.525H17.7179ZM29.4002 43.54L30.2728 44.0286L30.2768 44.0213L29.4002 43.54ZM29.3852 40.105L28.5159 40.5993L28.5159 40.5993L29.3852 40.105ZM28.0802 38.905L28.5274 38.0106L28.5274 38.0106L28.0802 38.905ZM21.7952 38.47V37.47H20.7952V38.47H21.7952ZM21.7952 49H20.7952V50H21.7952V49ZM24.3602 49V50H25.3602V49H24.3602ZM24.3602 45.22V44.22H23.3602V45.22H24.3602ZM28.1102 44.755L28.5816 45.6369L28.5816 45.6369L28.1102 44.755ZM24.3602 43.18H23.3602V44.18H24.3602V43.18ZM24.3602 40.54V39.54H23.3602V40.54H24.3602ZM26.8502 40.885L27.5421 40.163L27.5421 40.163L26.8502 40.885ZM21.3713 6H21V8H21.3713V6ZM33.7071 17.9216L22.0784 6.29289L20.6642 7.70711L32.2929 19.3358L33.7071 17.9216ZM34 19V18.6287H32V19H34ZM34 49V19H32V49H34ZM31 52C32.6569 52 34 50.6569 34 49H32C32 49.5523 31.5523 50 31 50V52ZM2 52H31V50H2V52ZM-1 49C-1 50.6569 0.343146 52 2 52V50C1.44772 50 1 49.5523 1 49H-1ZM-1 9V49H1V9H-1ZM2 6C0.343145 6 -1 7.34315 -1 9H1C1 8.44772 1.44772 8 2 8V6ZM21 6H2V8H21V6ZM22 19V9H20V19H22ZM31 18H21V20H31V18ZM32 36V19H30V36H32ZM2 37H31V35H2V37ZM1 9V36H3V9H1ZM21 8H2V10H21V8ZM7.51441 48.105C6.85293 48.105 6.29484 47.9978 5.82364 47.8047L5.06519 49.6553C5.81399 49.9622 6.6359 50.105 7.51441 50.105V48.105ZM9.1222 47.7756C8.70811 47.9826 8.18255 48.105 7.51441 48.105V50.105C8.42628 50.105 9.27072 49.9374 10.0166 49.5644L9.1222 47.7756ZM10.0366 46.9778C9.84643 47.2884 9.55693 47.5582 9.1222 47.7756L10.0166 49.5644C10.7419 49.2018 11.3324 48.6916 11.7423 48.0222L10.0366 46.9778ZM10.3544 45.865C10.3544 46.2827 10.2495 46.6411 10.0443 46.9654L11.7345 48.0346C12.1493 47.3789 12.3544 46.6473 12.3544 45.865H10.3544ZM10.099 44.9326C10.2427 45.118 10.3544 45.4014 10.3544 45.865H12.3544C12.3544 45.0686 12.1561 44.322 11.6798 43.7074L10.099 44.9326ZM9.34058 44.3036C9.62515 44.4425 9.87723 44.6464 10.099 44.9326L11.6798 43.7074C11.2816 43.1936 10.7937 42.7875 10.2182 42.5064L9.34058 44.3036ZM7.80901 43.6923C8.46571 43.9144 8.96862 44.1176 9.3322 44.2994L10.2266 42.5106C9.75021 42.2724 9.15312 42.0356 8.44982 41.7977L7.80901 43.6923ZM6.11888 42.9899C6.53709 43.2382 7.12291 43.4704 7.8216 43.6964L8.43723 41.7936C7.77592 41.5796 7.36174 41.4018 7.13995 41.2701L6.11888 42.9899ZM5.14941 41.335C5.14941 42.0664 5.53009 42.6403 6.11887 42.9899L7.13996 41.2701C7.11606 41.256 7.10716 41.2475 7.10737 41.2477C7.1081 41.2484 7.11602 41.2562 7.12548 41.2719C7.13514 41.2879 7.14214 41.305 7.14618 41.3203C7.15006 41.3349 7.14941 41.3411 7.14941 41.335H5.14941ZM5.79028 39.8651C5.32017 40.261 5.14941 40.8096 5.14941 41.335H7.14941C7.14941 41.2806 7.15785 41.2761 7.14777 41.301C7.14263 41.3138 7.13396 41.3308 7.12067 41.3492C7.10733 41.3677 7.09256 41.3831 7.07855 41.3949L5.79028 39.8651ZM7.18441 39.375C6.68407 39.375 6.17862 39.517 5.76762 39.8848L7.10121 41.3752C7.09797 41.3781 7.09382 41.3812 7.08959 41.3836C7.08544 41.386 7.08381 41.3864 7.08632 41.3855C7.0914 41.3838 7.1203 41.375 7.18441 41.375V39.375ZM8.72559 39.9204C8.28165 39.5344 7.73955 39.375 7.18441 39.375V41.375C7.34928 41.375 7.39718 41.4156 7.41323 41.4296L8.72559 39.9204ZM9.44269 41.4113C9.40892 40.8372 9.18168 40.2967 8.7063 39.904L7.43253 41.446C7.43591 41.4487 7.43562 41.449 7.43381 41.4467C7.43195 41.4443 7.43107 41.4425 7.43123 41.4429C7.43149 41.4434 7.43414 41.4491 7.43727 41.4621C7.44045 41.4754 7.44427 41.497 7.44614 41.5287L9.44269 41.4113ZM11.2194 40.47H8.44441V42.47H11.2194V40.47ZM9.46702 39.9506C9.92087 40.3021 10.1837 40.7877 10.2207 41.5204L12.2181 41.4196C12.1552 40.1723 11.658 39.1179 10.6918 38.3694L9.46702 39.9506ZM7.27441 39.32C8.27406 39.32 8.97119 39.5595 9.46013 39.9452L10.6987 38.3748C9.76764 37.6405 8.59477 37.32 7.27441 37.32V39.32ZM5.1187 39.9452C5.61053 39.5572 6.29946 39.32 7.27441 39.32V37.32C5.96937 37.32 4.8083 37.6428 3.88013 38.3748L5.1187 39.9452ZM4.43441 41.455C4.43441 40.7518 4.67085 40.2921 5.11181 39.9505L3.88702 38.3694C2.90797 39.1279 2.43441 40.1982 2.43441 41.455H4.43441ZM4.69707 42.4569C4.55153 42.2644 4.43441 41.9596 4.43441 41.455H2.43441C2.43441 42.2704 2.6273 43.0356 3.10175 43.6631L4.69707 42.4569ZM5.44825 43.0914C5.16973 42.9554 4.91952 42.7511 4.69707 42.4569L3.10175 43.6631C3.49931 44.1889 3.9891 44.6046 4.57058 44.8886L5.44825 43.0914ZM6.96949 43.6645C6.3175 43.4632 5.81541 43.2707 5.44825 43.0914L4.57057 44.8886C5.06342 45.1293 5.67133 45.3568 6.37934 45.5755L6.96949 43.6645ZM8.15715 44.0797C7.85033 43.9447 7.4438 43.8058 6.95989 43.6616L6.38894 45.5784C6.84503 45.7142 7.1585 45.8253 7.35167 45.9103L8.15715 44.0797ZM9.10652 44.7079C8.83105 44.4324 8.50233 44.2256 8.14406 44.074L7.36477 45.916C7.5265 45.9844 7.62778 46.0576 7.6923 46.1221L9.10652 44.7079ZM9.66941 46.06C9.66941 45.5404 9.47705 45.0573 9.08603 44.688L7.7128 46.142C7.7113 46.1406 7.70582 46.1351 7.69881 46.1251C7.6917 46.115 7.68494 46.1029 7.67947 46.0899C7.66768 46.0617 7.66941 46.0473 7.66941 46.06H9.66941ZM8.97265 47.569C9.44772 47.1803 9.66941 46.639 9.66941 46.06H7.66941C7.66941 46.0784 7.66779 46.0863 7.66787 46.0859C7.66802 46.0851 7.66961 46.0779 7.67465 46.0667C7.67977 46.0553 7.68652 46.0441 7.69394 46.0345C7.70122 46.0251 7.70638 46.0209 7.70618 46.021L8.97265 47.569ZM7.43941 48.05C7.96052 48.05 8.50143 47.9336 8.95087 47.5863L7.72796 46.0037C7.7374 45.9964 7.6783 46.05 7.43941 46.05V48.05ZM5.88323 47.5046C6.33214 47.895 6.88215 48.05 7.43941 48.05V46.05C7.25668 46.05 7.20669 46.005 7.19559 45.9954L5.88323 47.5046ZM5.13963 45.952C5.19797 46.5208 5.41042 47.0733 5.86515 47.4885L7.21368 46.0115C7.20841 46.0067 7.15086 45.9592 7.1292 45.748L5.13963 45.952ZM3.40441 46.85H6.13441V44.85H3.40441V46.85ZM4.78029 47.0279C4.55637 46.7231 4.41893 46.3365 4.40399 45.821L2.40483 45.879C2.42989 46.7435 2.67246 47.5369 3.16853 48.2121L4.78029 47.0279ZM5.82364 47.8047C5.36699 47.6175 5.02636 47.3536 4.77246 47.0174L3.17637 48.2226C3.66247 48.8664 4.30184 49.3425 5.06519 49.6553L5.82364 47.8047ZM19.5079 38.47V40.525H21.5079V38.47H19.5079ZM12.3629 39.47H20.5079V37.47H12.3629V39.47ZM13.3629 40.525V38.47H11.3629V40.525H13.3629ZM15.1529 39.525H12.3629V41.525H15.1529V39.525ZM16.1529 49V40.525H14.1529V49H16.1529ZM17.7179 48H15.1529V50H17.7179V48ZM16.7179 40.525V49H18.7179V40.525H16.7179ZM20.5079 39.525H17.7179V41.525H20.5079V39.525ZM28.8202 41.86C28.8202 42.3102 28.7187 42.7035 28.5237 43.0587L30.2768 44.0213C30.6418 43.3565 30.8202 42.6298 30.8202 41.86H28.8202ZM28.5159 40.5993C28.71 40.9405 28.8202 41.3512 28.8202 41.86H30.8202C30.8202 41.0488 30.6405 40.2894 30.2545 39.6107L28.5159 40.5993ZM27.633 39.7994C28.0552 40.0105 28.3341 40.2795 28.5159 40.5993L30.2545 39.6107C29.8564 38.9105 29.2653 38.3795 28.5274 38.0106L27.633 39.7994ZM25.9502 39.47C26.6793 39.47 27.2267 39.5963 27.633 39.7994L28.5274 38.0106C27.7738 37.6337 26.9012 37.47 25.9502 37.47V39.47ZM21.7952 39.47H25.9502V37.47H21.7952V39.47ZM22.7952 49V38.47H20.7952V49H22.7952ZM24.3602 48H21.7952V50H24.3602V48ZM23.3602 45.22V49H25.3602V45.22H23.3602ZM25.9502 44.22H24.3602V46.22H25.9502V44.22ZM27.6389 43.8731C27.2417 44.0854 26.6947 44.22 25.9502 44.22V46.22C26.9257 46.22 27.8188 46.0446 28.5816 45.6369L27.6389 43.8731ZM28.5277 43.0514C28.3543 43.3611 28.0758 43.6395 27.6389 43.8731L28.5816 45.6369C29.3047 45.2505 29.8862 44.7189 30.2727 44.0286L28.5277 43.0514ZM25.7552 44.18C26.3822 44.18 27.044 44.0344 27.5421 43.557L26.1583 42.113C26.1765 42.0956 26.1082 42.18 25.7552 42.18V44.18ZM24.3602 44.18H25.7552V42.18H24.3602V44.18ZM23.3602 40.54V43.18H25.3602V40.54H23.3602ZM25.7552 39.54H24.3602V41.54H25.7552V39.54ZM27.5421 40.163C27.044 39.6856 26.3822 39.54 25.7552 39.54V41.54C26.1082 41.54 26.1765 41.6244 26.1583 41.607L27.5421 40.163ZM28.2102 41.86C28.2102 41.2435 28.0279 40.6285 27.5421 40.163L26.1583 41.607C26.1642 41.6126 26.1724 41.6212 26.1821 41.6476C26.1935 41.6785 26.2102 41.7439 26.2102 41.86H28.2102ZM27.5421 43.557C28.0279 43.0915 28.2102 42.4765 28.2102 41.86H26.2102C26.2102 41.9761 26.1935 42.0415 26.1821 42.0724C26.1724 42.0988 26.1642 42.1074 26.1583 42.113L27.5421 43.557Z" fill="#50C0FF" mask="url(#path-1-inside-1_202_44)"/>
<path d="M18.25 2C18.25 1.30964 17.6904 0.75 17 0.75C16.3096 0.75 15.75 1.30964 15.75 2H18.25ZM16.1161 32.8839C16.6043 33.372 17.3957 33.372 17.8839 32.8839L25.8388 24.9289C26.327 24.4408 26.327 23.6493 25.8388 23.1612C25.3507 22.673 24.5592 22.673 24.0711 23.1612L17 30.2322L9.92893 23.1612C9.44078 22.673 8.64932 22.673 8.16117 23.1612C7.67301 23.6493 7.67301 24.4408 8.16117 24.9289L16.1161 32.8839ZM15.75 2L15.75 32H18.25V2H15.75Z" fill="#50C0FF"/>
</svg>
