<svg width="33" height="51" viewBox="0 0 33 51" fill="none" xmlns="http://www.w3.org/2000/svg">
	<path fill-rule="evenodd" clip-rule="evenodd" d="M21 7H21.3713L33 18.6287V19V49C33 50.1046 32.1046 51 31 51H2C0.895431 51 0 50.1046 0 49V9C0 7.89543 0.895431 7 2 7H21ZM21 9V19H31V36H2V9H21ZM10.804 43.54C11.084 43.03 11.224 42.47 11.224 41.86C11.224 41.2 11.079 40.615 10.789 40.105C10.499 39.595 10.064 39.195 9.48404 38.905C8.90404 38.615 8.19404 38.47 7.35404 38.47H3.19904V49H5.76404V45.22H7.35404C8.21404 45.22 8.93404 45.065 9.51404 44.755C10.094 44.445 10.524 44.04 10.804 43.54ZM8.25404 42.835C8.01404 43.065 7.64904 43.18 7.15904 43.18H5.76404V40.54H7.15904C7.64904 40.54 8.01404 40.655 8.25404 40.885C8.49404 41.115 8.61404 41.44 8.61404 41.86C8.61404 42.28 8.49404 42.605 8.25404 42.835ZM19.4144 39.13C18.5844 38.69 17.6144 38.47 16.5044 38.47H12.5594V49H16.5044C17.6044 49 18.5694 48.78 19.3994 48.34C20.2394 47.9 20.8844 47.28 21.3344 46.48C21.7944 45.68 22.0244 44.765 22.0244 43.735C22.0244 42.695 21.7944 41.78 21.3344 40.99C20.8844 40.19 20.2444 39.57 19.4144 39.13ZM18.6044 45.985C18.0644 46.515 17.3094 46.78 16.3394 46.78H15.1244V40.66H16.3394C17.3094 40.66 18.0644 40.93 18.6044 41.47C19.1444 42.01 19.4144 42.765 19.4144 43.735C19.4144 44.705 19.1444 45.455 18.6044 45.985ZM30.3128 40.525V38.47H23.4578V49H26.0228V44.74H29.2328V42.745H26.0228V40.525H30.3128Z" fill="#FF2626"/>
	<path d="M18.25 2C18.25 1.30964 17.6904 0.75 17 0.75C16.3096 0.75 15.75 1.30964 15.75 2H18.25ZM16.1161 32.8839C16.6043 33.372 17.3957 33.372 17.8839 32.8839L25.8388 24.9289C26.327 24.4408 26.327 23.6493 25.8388 23.1612C25.3507 22.673 24.5592 22.673 24.0711 23.1612L17 30.2322L9.92893 23.1612C9.44078 22.673 8.64932 22.673 8.16117 23.1612C7.67301 23.6493 7.67301 24.4408 8.16117 24.9289L16.1161 32.8839ZM15.75 2L15.75 32H18.25V2H15.75Z" fill="#FF2626"/>
</svg>
