<?xml version="1.0" encoding="UTF-8" standalone="no" ?>
<!DOCTYPE svg PUBLIC "-//W3C//DTD SVG 1.1//EN" "http://www.w3.org/Graphics/SVG/1.1/DTD/svg11.dtd">
<svg xmlns="http://www.w3.org/2000/svg" xmlns:xlink="http://www.w3.org/1999/xlink" version="1.1" width="140" height="500" viewBox="0 0 140 500" xml:space="preserve">
<desc>Created with Fabric.js 4.6.0</desc>
<defs>
</defs>
<g transform="matrix(0 -1.95 1.95 0 73.58 249.38)" id="6O_cq9UsfBuEw3i8vkO5b"  >
<radialGradient id="SVGID_2" gradientUnits="userSpaceOnUse" gradientTransform="matrix(-0.01 1.64 -3.37 -0.04 3745.2 -1087.5)"  cx="815.15" cy="933.96" r="54.688" fx="815.15" fy="933.96">
<stop offset="0%" style="stop-color:rgb(238,208,156);stop-opacity: 1"/>
<stop offset="100%" style="stop-color:rgb(202,154,71);stop-opacity: 1"/>
</radialGradient>
<path style="stroke: none; stroke-width: 1; stroke-dasharray: none; stroke-linecap: butt; stroke-dashoffset: 0; stroke-linejoin: miter; stroke-miterlimit: 4; fill: url(#SVGID_2); fill-rule: nonzero; opacity: 1;" vector-effect="non-scaling-stroke"  transform=" translate(-616.74, -232.59)" d="M 745.8 194.52 L 745.60244 270.665 L 487.87244 270.665 L 487.67487 194.52000000000004 z" stroke-linecap="round" />
</g>
<g transform="matrix(0 -1.95 1.95 0 5.3 233.1)" id="o49m65OmQxjY646J_IGmW" clip-path="url(#CLIPPATH_17)"  >
<clipPath id="CLIPPATH_17" >
	<path transform="matrix(1 0 0 1 -8.35 35.01) translate(-616.74, -232.59)" id="path4461" d="M 745.8 194.52 L 745.60244 270.665 L 487.87244 270.665 L 487.67487 194.52000000000004 z" stroke-linecap="round" />
</clipPath>
<path style="stroke: none; stroke-width: 1; stroke-dasharray: none; stroke-linecap: butt; stroke-dashoffset: 0; stroke-linejoin: miter; stroke-miterlimit: 4; fill: rgb(165,112,55); fill-opacity: 0.35; fill-rule: nonzero; opacity: 1;" vector-effect="non-scaling-stroke"  transform=" translate(-625.09, -197.58)" d="M 503.62 192.88 C 503.02 193.63 503.3 194.9 504.15 195.35 C 505.08 195.9 506.10999999999996 196.28 507.09 196.73999999999998 C 508.11999999999995 197.17999999999998 509.13 197.68999999999997 510.17999999999995 198.07999999999998 C 511.28999999999996 198.38 512.4499999999999 198.52999999999997 513.5899999999999 198.7 C 517.2499999999999 199.06 520.93 199.29 524.5999999999999 199.48999999999998 C 528.0899999999999 199.70999999999998 531.5799999999999 199.90999999999997 535.0799999999999 199.99999999999997 C 540.77 200.18999999999997 546.4699999999999 200.40999999999997 552.16 200.48999999999998 C 558.48 200.57999999999998 564.8 200.67 571.12 200.74999999999997 C 575.21 200.70999999999998 579.3 200.66999999999996 583.39 200.68999999999997 C 605.76 200.66999999999996 628.12 200.63999999999996 650.49 200.62999999999997 C 664.71 200.70999999999998 678.9300000000001 200.78999999999996 693.15 200.87999999999997 C 703.01 201.14999999999998 712.86 201.43999999999997 722.7099999999999 201.62999999999997 C 729.4899999999999 201.81999999999996 736.2599999999999 201.99999999999997 743.03 202.18999999999997 C 743.91 202.23999999999998 744.81 202.40999999999997 745.6899999999999 202.24999999999997 C 746.5999999999999 202.18999999999997 747.0899999999999 201.11999999999998 746.78 200.30999999999997 C 746.17 199.34999999999997 744.91 199.45999999999998 743.92 199.42 C 740.3 199.29999999999998 736.68 199.45999999999998 733.06 199.45 C 724.5799999999999 199.51 716.0999999999999 199.60999999999999 707.6199999999999 199.63 C 701.1399999999999 199.66 694.6599999999999 199.68 688.1799999999998 199.60999999999999 C 658.5399999999998 199.41 628.8999999999999 199.23999999999998 599.2599999999999 199.04999999999998 C 581.6299999999999 198.93999999999997 563.9999999999999 198.82999999999998 546.3799999999999 198.71999999999997 C 540.7999999999998 198.53999999999996 535.2299999999999 198.33999999999997 529.6599999999999 198.11999999999998 C 527.0199999999999 197.85999999999999 524.3799999999999 197.65999999999997 521.7599999999999 197.28999999999996 C 518.7199999999999 196.93999999999997 515.6799999999998 196.56999999999996 512.6599999999999 196.07999999999996 C 511.46999999999986 195.90999999999997 510.27999999999986 195.67999999999995 509.08999999999986 195.46999999999994 C 508.46999999999986 195.20999999999995 507.83999999999986 194.93999999999994 507.15999999999985 194.90999999999994 C 507.28999999999985 195.01999999999995 507.04999999999984 195.30999999999995 507.02999999999986 195.02999999999994 C 505.96999999999986 194.26999999999995 504.83999999999986 193.59999999999994 503.77999999999986 192.83999999999995 L 503.6899999999999 192.83999999999995 L 503.6199999999999 192.87999999999994 z" stroke-linecap="round" />
</g>
<g transform="matrix(0 -1.95 1.95 0 20.45 250.36)" id="JcNAFZIbkC622WmqvQwQN" clip-path="url(#CLIPPATH_18)"  >
<clipPath id="CLIPPATH_18" >
	<path transform="matrix(1 0 0 1 0.5 27.24) translate(-616.74, -232.59)" id="path4461" d="M 745.8 194.52 L 745.60244 270.665 L 487.87244 270.665 L 487.67487 194.52000000000004 z" stroke-linecap="round" />
</clipPath>
<path style="stroke: none; stroke-width: 1; stroke-dasharray: none; stroke-linecap: butt; stroke-dashoffset: 0; stroke-linejoin: miter; stroke-miterlimit: 4; fill: rgb(165,112,55); fill-opacity: 0.35; fill-rule: nonzero; opacity: 1;" vector-effect="non-scaling-stroke"  transform=" translate(-616.24, -205.36)" d="M 744.81 203.38 C 734.43 203.51999999999998 724.04 203.68 713.66 203.81 C 711.39 203.76 709.12 203.72 706.85 203.78 C 704.4200000000001 203.8 701.99 203.76 699.57 203.72 C 677.3000000000001 203.72 655.0300000000001 203.71 632.76 203.72 C 601.03 203.97 569.29 204.22 537.56 204.47 C 524.93 204.25 512.3 204.06 499.66999999999996 203.83 L 493.15999999999997 203.62 C 492.96999999999997 203.86 493.2 204.54 492.68999999999994 204.38 C 491.35999999999996 204.66 489.99999999999994 204.79 488.65999999999997 205 C 488.01 205.29 487.09 204.75 486.59 205.31 C 486.28 206.08 487.27 206.67000000000002 487.92999999999995 206.37 C 489.25999999999993 206.29 490.59 206.20000000000002 491.91999999999996 206.27 C 494.83 206.34 497.73999999999995 206.31 500.65 206.25 C 502.39 206.23 504.12 206.2 505.84999999999997 206.27 C 515.4 206.53 524.9399999999999 206.65 534.48 206.83 C 544.1700000000001 206.99 553.86 207.15 563.5600000000001 207.3 C 566.57 207.33 569.59 207.4 572.61 207.35000000000002 C 575.51 207.32000000000002 578.42 207.22000000000003 581.32 207.21000000000004 C 619.8800000000001 206.74000000000004 658.4300000000001 206.26000000000005 696.98 205.80000000000004 C 710.84 205.64000000000004 724.7 205.47000000000003 738.5600000000001 205.31000000000003 C 740.45 205.39000000000004 742.33 205.51000000000002 744.21 205.59000000000003 C 745.0300000000001 205.62000000000003 746.24 204.95000000000005 745.88 204.00000000000003 C 745.71 203.60000000000002 745.27 203.22000000000003 744.81 203.38000000000002 z" stroke-linecap="round" />
</g>
<g transform="matrix(0 -1.95 1.95 0 32.7 250.14)" id="TvYdqfrminHp_4w44K5zk" clip-path="url(#CLIPPATH_19)"  >
<clipPath id="CLIPPATH_19" >
	<path transform="matrix(1 0 0 1 0.39 20.96) translate(-616.74, -232.59)" id="path4461" d="M 745.8 194.52 L 745.60244 270.665 L 487.87244 270.665 L 487.67487 194.52000000000004 z" stroke-linecap="round" />
</clipPath>
<path style="stroke: none; stroke-width: 1; stroke-dasharray: none; stroke-linecap: butt; stroke-dashoffset: 0; stroke-linejoin: miter; stroke-miterlimit: 4; fill: rgb(165,112,55); fill-opacity: 0.35; fill-rule: nonzero; opacity: 1;" vector-effect="non-scaling-stroke"  transform=" translate(-616.35, -211.63)" d="M 744.44 207.75 C 703.4200000000001 208.43 662.4000000000001 209.12 621.3800000000001 209.8 C 582.9500000000002 210.35000000000002 544.5200000000001 210.89000000000001 506.0900000000001 211.44 C 505.3200000000001 212.07999999999998 504.2700000000001 212.06 503.3300000000001 212.21 C 501.2700000000001 212.56 499.1900000000001 212.73000000000002 497.1200000000001 212.97 C 494.1400000000001 213.31 491.1500000000001 213.63 488.16000000000014 213.94 C 487.4300000000001 213.9 486.63000000000017 214.18 486.22000000000014 214.81 C 489.1800000000001 215.03 492.15000000000015 215.24 495.1200000000001 215.38 C 500.6300000000001 215.42 506.1400000000001 215.43 511.6500000000001 215.53 C 513.33 215.52 515.0000000000001 215.41 516.6700000000001 215.4 C 523.8700000000001 215.25 531.07 214.99 538.2700000000001 214.86 C 558.7300000000001 214.42000000000002 579.1800000000001 213.97000000000003 599.6400000000001 213.57000000000002 C 633.7300000000001 212.88000000000002 667.8300000000002 212.24 701.9200000000001 211.57000000000002 C 714.1200000000001 211.33 726.32 211.11 738.5200000000001 210.86 C 740.7100000000002 210.8 742.9000000000001 210.74 745.0900000000001 210.59 C 746.0500000000002 210.47 746.9100000000002 209.35 746.2300000000001 208.48 C 745.8400000000001 207.92 745.1100000000001 207.64 744.4400000000002 207.75 z" stroke-linecap="round" />
</g>
<g transform="matrix(0 -1.95 1.95 0 53.66 250.44)" id="H73U9LhyK8-7dKAqN3eaD" clip-path="url(#CLIPPATH_20)"  >
<clipPath id="CLIPPATH_20" >
	<path transform="matrix(1 0 0 1 0.55 10.21) translate(-616.74, -232.59)" id="path4461" d="M 745.8 194.52 L 745.60244 270.665 L 487.87244 270.665 L 487.67487 194.52000000000004 z" stroke-linecap="round" />
</clipPath>
<path style="stroke: none; stroke-width: 1; stroke-dasharray: none; stroke-linecap: butt; stroke-dashoffset: 0; stroke-linejoin: miter; stroke-miterlimit: 4; fill: rgb(165,112,55); fill-opacity: 0.35; fill-rule: nonzero; opacity: 1;" vector-effect="non-scaling-stroke"  transform=" translate(-616.19, -222.38)" d="M 715.62 219.25 C 680.05 219.7 644.48 220.15 608.91 220.59 C 591.12 220.31 573.3199999999999 220.01 555.53 219.73 C 552.51 219.7 549.49 219.64999999999998 546.47 219.63 C 531.87 220.26999999999998 517.27 220.89 502.67 221.53 C 498.74 221.74 494.81 221.92 490.89000000000004 222.26 C 489.70000000000005 222.39 488.50000000000006 222.51999999999998 487.31000000000006 222.66 C 486.39000000000004 222.87 485.84000000000003 224 486.2800000000001 224.84 C 486.7600000000001 225.72 487.8500000000001 225.59 488.68000000000006 225.43 C 490.14000000000004 225.26000000000002 491.62000000000006 225.26000000000002 493.0900000000001 225.19 C 494.8900000000001 225.22 496.6900000000001 225.3 498.49000000000007 225.3 C 519.5600000000001 224.87 540.6200000000001 224.43 561.69 224.01000000000002 C 591.83 223.52 621.96 223.02 652.1 222.54000000000002 C 675.09 222.19000000000003 698.07 221.85000000000002 721.0600000000001 221.50000000000003 C 724.9300000000001 221.78000000000003 728.8100000000001 222.02000000000004 732.6700000000001 222.38000000000002 C 735.3900000000001 222.62000000000003 738.1 222.93000000000004 740.8100000000001 223.23000000000002 C 741.9000000000001 223.36 743.0000000000001 223.47000000000003 744.07 223.69000000000003 C 744.94 223.91000000000003 746.25 223.57000000000002 746.24 222.47000000000003 C 746.38 221.59000000000003 745.61 220.80000000000004 744.79 220.61 C 743.86 220.41000000000003 742.9 220.41000000000003 741.9599999999999 220.33 C 737.9799999999999 220.11 733.9899999999999 219.86 730.0099999999999 219.71 C 725.9899999999999 219.55 721.9599999999999 219.36 717.9399999999998 219.22 C 717.1699999999998 219.21 716.3999999999999 219.24 715.6199999999998 219.25 z" stroke-linecap="round" />
</g>
<g transform="matrix(0 -1.95 1.95 0 68.39 249.93)" id="D5WL2XF2fFnQYbUOdFY9X" clip-path="url(#CLIPPATH_21)"  >
<clipPath id="CLIPPATH_21" >
	<path transform="matrix(1 0 0 1 0.28 2.66) translate(-616.74, -232.59)" id="path4461" d="M 745.8 194.52 L 745.60244 270.665 L 487.87244 270.665 L 487.67487 194.52000000000004 z" stroke-linecap="round" />
</clipPath>
<path style="stroke: none; stroke-width: 1; stroke-dasharray: none; stroke-linecap: butt; stroke-dashoffset: 0; stroke-linejoin: miter; stroke-miterlimit: 4; fill: rgb(165,112,55); fill-opacity: 0.35; fill-rule: nonzero; opacity: 1;" vector-effect="non-scaling-stroke"  transform=" translate(-616.45, -229.93)" d="M 653.62 227.12 C 603.72 228.44 553.81 229.76 503.90999999999997 231.06 C 502.63 231.16 501.32 231.23 500.05999999999995 230.94 C 498.0199999999999 230.47 495.91999999999996 230.44 493.8399999999999 230.34 C 492.7299999999999 230.31 491.6099999999999 230.44 490.5299999999999 230.72 C 489.4099999999999 230.84 488.25999999999993 230.8 487.1499999999999 231.01 C 486.6599999999999 231.10999999999999 486.4799999999999 231.69 486.4099999999999 232.12 C 488.4899999999999 232.1 490.56999999999994 232.07 492.6499999999999 232.11 C 496.36999999999995 232.41000000000003 500.0899999999999 232.5 503.80999999999995 232.69000000000003 C 505.37999999999994 232.71000000000004 506.94999999999993 232.78000000000003 508.5199999999999 232.81000000000003 C 510.1099999999999 232.78000000000003 511.68999999999994 232.73000000000002 513.28 232.75000000000003 C 515.3299999999999 232.76000000000002 517.38 232.74000000000004 519.43 232.68000000000004 C 523.3499999999999 232.58000000000004 527.28 232.58000000000004 531.1999999999999 232.49000000000004 C 564.2099999999999 231.92000000000004 597.2099999999999 231.35000000000005 630.2099999999999 230.79000000000005 C 644.0199999999999 230.59000000000006 657.8299999999999 230.37000000000006 671.6299999999999 230.18000000000004 C 690.0499999999998 230.01000000000005 708.4599999999999 229.85000000000002 726.8699999999999 229.68000000000004 C 728.3499999999999 229.65000000000003 729.8299999999999 229.57000000000002 731.31 229.69000000000003 C 735.66 229.79000000000002 740 229.90000000000003 744.3399999999999 230.00000000000003 C 745.0799999999999 229.93000000000004 745.9499999999999 229.91000000000003 746.4999999999999 230.50000000000003 C 746.3999999999999 229.54000000000002 745.5999999999999 228.68000000000004 744.6199999999999 228.59000000000003 C 737.1099999999999 228.34000000000003 729.5899999999999 228.08000000000004 722.0699999999999 227.84000000000003 C 711.55 227.66000000000003 701.02 227.57000000000002 690.4999999999999 227.44000000000003 C 679.4999999999999 227.31000000000003 668.5099999999999 227.18000000000004 657.5099999999999 227.06000000000003 C 656.2099999999999 227.05000000000004 654.9199999999998 227.08000000000004 653.6199999999999 227.12000000000003 z" stroke-linecap="round" />
</g>
<g transform="matrix(0 -1.95 1.95 0 86.49 250.57)" id="jBHwx8hZH0hsWbdQHFHIL" clip-path="url(#CLIPPATH_22)"  >
<clipPath id="CLIPPATH_22" >
	<path transform="matrix(1 0 0 1 0.61 -6.62) translate(-616.74, -232.59)" id="path4461" d="M 745.8 194.52 L 745.60244 270.665 L 487.87244 270.665 L 487.67487 194.52000000000004 z" stroke-linecap="round" />
</clipPath>
<path style="stroke: none; stroke-width: 1; stroke-dasharray: none; stroke-linecap: butt; stroke-dashoffset: 0; stroke-linejoin: miter; stroke-miterlimit: 4; fill: rgb(165,112,55); fill-opacity: 0.35; fill-rule: nonzero; opacity: 1;" vector-effect="non-scaling-stroke"  transform=" translate(-616.13, -239.22)" d="M 487.19 236 C 486.73 236.82 486.71 237.8 486.56 238.71 C 486.41 239.57000000000002 487.2 240.51000000000002 488.09 240.42000000000002 C 489.06 240.37 489.96 239.94000000000003 490.92999999999995 239.88000000000002 C 493.4599999999999 239.52 496.00999999999993 239.28000000000003 498.55999999999995 239.02 C 500.36999999999995 238.88000000000002 502.18999999999994 238.71 504.00999999999993 238.67000000000002 C 505.4099999999999 238.62 506.80999999999995 238.57000000000002 508.2099999999999 238.63000000000002 C 522.2699999999999 238.93000000000004 536.3199999999999 239.25000000000003 550.3799999999999 239.55 C 572.9299999999998 239.91000000000003 595.4799999999999 240.29000000000002 618.0199999999999 240.64000000000001 C 620.7799999999999 240.67000000000002 623.5399999999998 240.75000000000003 626.2999999999998 240.78 C 644.3599999999998 240.55 662.4099999999999 240.32 680.4699999999998 240.09 C 698.3599999999998 240.32 716.2599999999998 240.55 734.1599999999999 240.78 C 735.2399999999999 240.98 736.3299999999998 241.19 737.3799999999999 241.56 C 738.6599999999999 241.94 739.9199999999998 242.51 741.2799999999999 242.53 C 742.4399999999998 242.49 743.5799999999998 242.23 744.7199999999999 242.03 C 745.6399999999999 241.79 746.4699999999999 240.94 746.3399999999999 239.94 C 746.1199999999999 238.94 744.9999999999999 238.48 744.06 238.56 C 743.04 238.65 742.02 238.76 741 238.62 C 737.9 238.34 734.8 238 731.69 237.88 C 729.4300000000001 237.72 727.1700000000001 237.75 724.9100000000001 237.69 C 703.9800000000001 237.60999999999999 683.0600000000001 237.52 662.1300000000001 237.44 C 653.7200000000001 237.53 645.3100000000001 237.63 636.9100000000001 237.72 C 634.5100000000001 237.87 632.1100000000001 237.85 629.72 237.91 C 619.97 238.04 610.22 238.13 600.47 238.31 C 596.57 238.33 592.6800000000001 238.36 588.7900000000001 238.37 C 560.3000000000001 237.6 531.82 236.81 503.3300000000001 236.05 C 498.0600000000001 235.93 492.8000000000001 235.81 487.5300000000001 235.69 C 487.4200000000001 235.79 487.30000000000007 235.9 487.1900000000001 236 z M 485.96999999999997 242.66 C 485.76 242.79999999999998 486.09 242.75 486.05999999999995 242.62 L 485.96999999999997 242.66 z" stroke-linecap="round" />
</g>
<g transform="matrix(0 -1.95 1.95 0 84.67 499.88)" id="Wqv_1ENU1WelqYuovJkVk" clip-path="url(#CLIPPATH_23)"  >
<clipPath id="CLIPPATH_23" >
	<path transform="matrix(1 0 0 1 128.44 -5.69) translate(-616.74, -232.59)" id="path4461" d="M 745.8 194.52 L 745.60244 270.665 L 487.87244 270.665 L 487.67487 194.52000000000004 z" stroke-linecap="round" />
</clipPath>
<path style="stroke: none; stroke-width: 1; stroke-dasharray: none; stroke-linecap: butt; stroke-dashoffset: 0; stroke-linejoin: miter; stroke-miterlimit: 4; fill: rgb(165,112,55); fill-opacity: 0.35; fill-rule: nonzero; opacity: 1;" vector-effect="non-scaling-stroke"  transform=" translate(-488.3, -238.28)" d="M 488.28 238.28 C 488.35999999999996 238.39000000000001 488.28999999999996 238.16 488.28 238.28 z" stroke-linecap="round" />
</g>
<g transform="matrix(0 -1.95 1.95 0 99.34 250.26)" id="I62NWpR44BpgVAvfa9NYK" clip-path="url(#CLIPPATH_24)"  >
<clipPath id="CLIPPATH_24" >
	<path transform="matrix(1 0 0 1 0.45 -13.21) translate(-616.74, -232.59)" id="path4461" d="M 745.8 194.52 L 745.60244 270.665 L 487.87244 270.665 L 487.67487 194.52000000000004 z" stroke-linecap="round" />
</clipPath>
<path style="stroke: none; stroke-width: 1; stroke-dasharray: none; stroke-linecap: butt; stroke-dashoffset: 0; stroke-linejoin: miter; stroke-miterlimit: 4; fill: rgb(165,112,55); fill-opacity: 0.35; fill-rule: nonzero; opacity: 1;" vector-effect="non-scaling-stroke"  transform=" translate(-616.29, -245.8)" d="M 497.22 243.84 C 493.90000000000003 243.97 490.6 244.34 487.31 244.78 C 487.19 246.42 488.84 246.25 489.94 245.91 C 494.2 245.38 498.49 245.04 502.79 245.23 C 520.94 245.45 539.0600000000001 246.26999999999998 557.2 246.76 C 577.12 247.32 597.0400000000001 247.85 616.96 247.78 C 636.1 247.72 655.24 247.48 674.38 247.17 C 688.29 246.98 702.2 247.04 716.11 247.5 C 724.49 247.74 732.87 247.89 741.25 247.69 C 742.48 247.22 744.73 248.14 745.34 247.5 C 744.25 246.31 742.44 247.19 741.0400000000001 247.05 C 729.94 247.5 718.84 246.76000000000002 707.7400000000001 246.51000000000002 C 691.0600000000002 246.03000000000003 674.3700000000001 246.28000000000003 657.6900000000002 246.47000000000003 C 638.1500000000002 246.60000000000002 618.6200000000001 246.39000000000001 599.0900000000001 245.89000000000001 C 569.5100000000001 245.23000000000002 539.9200000000002 244.55 510.33000000000015 243.96 C 505.96000000000015 243.95000000000002 501.59000000000015 243.74 497.22000000000014 243.84 z M 487.25 244.69 C 487.38 244.55 487.17 244.25 487.25 244.69 z" stroke-linecap="round" />
</g>
<g transform="matrix(0 -1.95 1.95 0 117.24 248.74)" id="AGJv-WpCcmAkvzctaLksh" clip-path="url(#CLIPPATH_25)"  >
<clipPath id="CLIPPATH_25" >
	<path transform="matrix(1 0 0 1 -0.32 -22.39) translate(-616.74, -232.59)" id="path4461" d="M 745.8 194.52 L 745.60244 270.665 L 487.87244 270.665 L 487.67487 194.52000000000004 z" stroke-linecap="round" />
</clipPath>
<path style="stroke: none; stroke-width: 1; stroke-dasharray: none; stroke-linecap: butt; stroke-dashoffset: 0; stroke-linejoin: miter; stroke-miterlimit: 4; fill: rgb(165,112,55); fill-opacity: 0.35; fill-rule: nonzero; opacity: 1;" vector-effect="non-scaling-stroke"  transform=" translate(-617.06, -254.98)" d="M 742.78 252.19 C 727.18 252.94 711.56 252.76 695.9599999999999 253.07999999999998 C 653.7599999999999 253.67999999999998 611.56 254.08999999999997 569.3599999999999 254.35999999999999 C 558.9799999999999 254.36999999999998 548.5899999999999 254.57 538.2199999999999 254.39999999999998 C 524.56 254.03999999999996 510.9199999999999 253.09999999999997 497.2699999999999 252.51999999999998 C 494.0999999999999 252.45999999999998 490.9199999999999 252.54999999999998 487.74999999999994 252.46999999999997 C 487.90999999999997 254.24999999999997 490.0299999999999 253.62999999999997 491.21999999999997 253.71999999999997 C 497.61999999999995 253.72999999999996 504.01 254.15999999999997 510.40999999999997 254.46999999999997 C 512.03 255.12999999999997 509.28999999999996 256.22999999999996 508.53999999999996 255.54999999999998 C 502.17999999999995 255.36999999999998 495.78999999999996 255.01 489.43999999999994 255.61999999999998 C 488.25999999999993 254.33999999999997 486.23999999999995 256.96999999999997 488.0299999999999 257.53999999999996 C 489.5499999999999 258.23999999999995 491.1699999999999 257.28 492.7399999999999 257.48999999999995 C 506.3799999999999 257.06999999999994 520.0399999999998 257.46 533.6799999999998 257.22999999999996 C 601.8399999999998 256.78 669.9999999999998 256.28999999999996 738.1599999999999 255.96999999999997 C 740.4799999999999 255.99999999999997 742.8099999999998 256.02 745.1199999999999 256.15999999999997 C 746.6099999999999 256.01 747.4099999999999 253.94999999999996 746.2499999999999 252.93999999999997 C 745.3599999999999 251.99999999999997 743.9499999999999 252.16999999999996 742.7799999999999 252.18999999999997 z" stroke-linecap="round" />
</g>
<g transform="matrix(0 -1.95 1.95 0 134.35 248.88)" id="X0mTKGCSVu6ywcOihWRtl" clip-path="url(#CLIPPATH_26)"  >
<clipPath id="CLIPPATH_26" >
	<path transform="matrix(1 0 0 1 -0.26 -31.16) translate(-616.74, -232.59)" id="path4461" d="M 745.8 194.52 L 745.60244 270.665 L 487.87244 270.665 L 487.67487 194.52000000000004 z" stroke-linecap="round" />
</clipPath>
<path style="stroke: none; stroke-width: 1; stroke-dasharray: none; stroke-linecap: butt; stroke-dashoffset: 0; stroke-linejoin: miter; stroke-miterlimit: 4; fill: rgb(165,112,55); fill-opacity: 0.35; fill-rule: nonzero; opacity: 1;" vector-effect="non-scaling-stroke"  transform=" translate(-617, -263.75)" d="M 746.06 261.5 C 743.3599999999999 261.6 740.65 261.55 737.9399999999999 261.62 C 706.8499999999999 261.99 675.77 262.35 644.6899999999999 262.72 C 643.04 262.1 641.29 262.63000000000005 639.5899999999999 262.56 C 635.0899999999999 262.5 630.5899999999999 262.6 626.0899999999999 262.59 C 593.18 262.84 560.27 263.09999999999997 527.3499999999999 263.34 C 523.4499999999999 263.23999999999995 519.55 263.32 515.6399999999999 263.34999999999997 C 506.16999999999985 263.58 496.6899999999999 263.7 487.21999999999986 263.80999999999995 C 486.8899999999999 264.43999999999994 487.05999999999983 265.80999999999995 487.6899999999999 265.90999999999997 C 488.8699999999999 265.74999999999994 490.1399999999999 265.90999999999997 491.3599999999999 265.9 C 514.6899999999999 265.96999999999997 538.0199999999999 265.7 561.3599999999999 265.58 C 574.0799999999999 265.51 586.81 265.34 599.5299999999999 265.25 C 630.6599999999999 264.99 661.7899999999998 264.7 692.9299999999998 264.45 C 695.6699999999998 264.40999999999997 698.4199999999998 264.44 701.1699999999998 264.52 C 709.6699999999998 264.64 718.1799999999998 264.78 726.6799999999998 265.03999999999996 C 731.7499999999999 265.17999999999995 736.8199999999998 265.26 741.8799999999999 265.55999999999995 C 743.1799999999998 265.50999999999993 744.4299999999998 265.94999999999993 745.7199999999999 266.03 C 746.9999999999999 265.61999999999995 746.0199999999999 263.95 746.7699999999999 263.11999999999995 C 747.0699999999998 262.5199999999999 747.0699999999998 261.24999999999994 746.0599999999998 261.49999999999994 z" stroke-linecap="round" />
</g>
</svg>