<svg width="33" height="51" viewBox="0 0 33 51" fill="none" xmlns="http://www.w3.org/2000/svg">
	<path fill-rule="evenodd" clip-rule="evenodd" d="M21 7H21.3713L33 18.6287V19V49C33 50.1046 32.1046 51 31 51H2C0.895431 51 0 50.1046 0 49V9C0 7.89543 0.895431 7 2 7H21ZM21 9V19H31V36H2V9H21ZM11.0801 46.9H6.55014L11.0801 40.42V38.47H3.64014V40.57H8.14014L3.64014 47.05V49H11.0801V46.9ZM17.5707 49V38.47H15.0057V49H17.5707ZM29.2845 43.54C29.5645 43.03 29.7045 42.47 29.7045 41.86C29.7045 41.2 29.5595 40.615 29.2695 40.105C28.9795 39.595 28.5445 39.195 27.9645 38.905C27.3845 38.615 26.6745 38.47 25.8345 38.47H21.6795V49H24.2445V45.22H25.8345C26.6945 45.22 27.4145 45.065 27.9945 44.755C28.5745 44.445 29.0045 44.04 29.2845 43.54ZM26.7345 42.835C26.4945 43.065 26.1295 43.18 25.6395 43.18H24.2445V40.54H25.6395C26.1295 40.54 26.4945 40.655 26.7345 40.885C26.9745 41.115 27.0945 41.44 27.0945 41.86C27.0945 42.28 26.9745 42.605 26.7345 42.835Z" fill="#292929"/>
	<path d="M18.25 2C18.25 1.30964 17.6904 0.75 17 0.75C16.3096 0.75 15.75 1.30964 15.75 2H18.25ZM16.1161 32.8839C16.6043 33.372 17.3957 33.372 17.8839 32.8839L25.8388 24.9289C26.327 24.4408 26.327 23.6493 25.8388 23.1612C25.3507 22.673 24.5592 22.673 24.0711 23.1612L17 30.2322L9.92893 23.1612C9.44078 22.673 8.64932 22.673 8.16117 23.1612C7.67301 23.6493 7.67301 24.4408 8.16117 24.9289L16.1161 32.8839ZM15.75 2L15.75 32H18.25V2H15.75Z" fill="#292929"/>
</svg>
